<svg transform="scale(1)" version="1.1" id="Layer_1" xmlns="http://www.w3.org/2000/svg" xmlns:xlink="http://www.w3.org/1999/xlink" x="0px" y="0px" viewBox="0 0 500 500" xml:space="preserve" class="show_show__wrapper__graphic__5Waiy "><title>React</title><style type="text/css">
	.st0{fill:#725858;}
	.st1{fill:#093F68;}
	.st2{fill:#68E1FD;}
	.st3{fill:#FFC9B0;}
	.st4{fill:#F56132;}
	.st5{fill:#FFBC0E;}
	.st6{fill:#FFFFFF;}
</style><g id="character"><path class="st0" d="M268.9,82.3c17.2-1.1,35.9,6.6,48.9,16.7c20,15.5,29.8,38.3,30.9,63.1l3,66.5c1.5,32.7,7.9,69.7-23.8,90.6
		c-16.4,10.8-36.6,14.1-56.3,14.8c-24.3,0.9-49.1-2-72-10.5c-18.5-6.9-45.5-19.9-47.1-42.6c-0.9-12.5,7.1-23.8,11.4-35.6
		c9.1-24.9,1.9-52.7,4.9-79c3.1-27.2,29.3-84.9,65.6-73.5c1.8,0.6,3.7,1.4,5.6,1.2c2.1-0.2,3.8-1.7,5.5-3
		C252.3,85.8,260.4,82.7,268.9,82.3z"></path><path class="st1" d="M263.4,336.1c-23.5,0-45.1-3.6-64.3-10.8c-30.8-11.5-47.1-26.4-48.3-44.2c-0.6-9.3,3.3-17.9,7.1-26.2
		c1.5-3.3,3.1-6.8,4.4-10.2c5.4-15,4.9-30.7,4.3-47.4c-0.4-10.3-0.7-20.9,0.5-31.2c2.4-20.5,17.2-56.4,38.8-70.5
		c9.4-6.1,19.2-7.6,29.1-4.6l1.1,0.4c1.2,0.5,2.4,0.8,3.7,0.8c1.4-0.2,2.7-1.2,4.1-2.3l0.5-0.4c7-5.4,15.6-8.6,24.4-9
		c19.2-1.2,38.5,8,50.2,17.1c19.5,15.1,30.4,37.4,31.6,64.4l3,66.5c0.2,3.7,0.4,7.4,0.6,11.2c1.9,30.4,3.8,61.9-25.2,81.1
		c-14.3,9.4-32.4,14.2-57.2,15.1C269,336,266.1,336.1,263.4,336.1z M225.1,93.2c-6.2,0.1-12.2,2-17.3,5.5
		c-20.7,13.5-34.9,48-37.2,67.8c-1.2,10.1-0.8,20.5-0.4,30.7c0.6,16.3,1.1,33.1-4.5,48.8c-1.3,3.5-2.9,7.1-4.5,10.5
		c-3.8,8.2-7.4,16-6.8,24.4c1.1,16.2,16.6,30,45.9,41c21,7.8,45,11.4,71.3,10.4c24.1-0.9,41.6-5.5,55.3-14.5
		c27.2-18,25.4-48.4,23.6-77.8c-0.2-3.8-0.5-7.5-0.6-11.2l-3-66.5c-1.2-26-11.6-47.3-30.2-61.8c-11.2-8.7-29.5-17.5-47.7-16.3
		l-0.1-1.8l0.1,1.8c-8.1,0.4-16,3.3-22.4,8.3l-0.4,0.4c-1.6,1.3-3.5,2.8-5.9,3.1c-1.8,0.1-3.7-0.2-5.4-0.9l-1-0.3
		C231.1,93.7,228.1,93.2,225.1,93.2z"></path><path class="st2" d="M380.8,372.8c-7.2-42.5-62.7-90.2-69-95.5c-4.4-3.7-19.5-4.7-21.6-4.7h-55.6c-2.2,0-17.2,1-21.6,4.7
		c-6.3,5.3-61.8,53-69,95.5c-1.3,7.4,0.9,15.1,5.9,20.7c6.9,7.8,20.2,15.6,64.9,15.6H310c44.7,0,58-7.7,64.9-15.6
		C379.9,387.8,382.1,380.2,380.8,372.8z M217.4,324.3V373c-13-0.2-29.8-1.2-35.6-2.4C187.1,357.5,206.2,337.9,217.4,324.3z
		 M307.4,373v-48.8c11.2,13.6,30.3,33.2,35.6,46.3C337.2,371.8,320.3,372.9,307.4,373L307.4,373z"></path><path class="st1" d="M309.9,410.9h-95.2c-45.9,0-59.3-8.2-66.3-16.2c-5.4-6-7.8-14.2-6.4-22.2c7.4-43.1,63.3-91.2,69.7-96.6
		c5.4-4.6,22.6-5.1,22.8-5.1h55.6c0.2,0,17.4,0.5,22.8,5.1c6.4,5.3,62.3,53.4,69.7,96.6l0,0c1.4,8-0.9,16.2-6.4,22.2
		C369.2,402.7,355.8,410.9,309.9,410.9z M299.9,407.2h10.1c44.4,0,57.1-7.6,63.5-15c4.7-5.2,6.7-12.3,5.5-19.2l0,0
		c-7.1-41.9-62.2-89.1-68.4-94.4c-3.7-3.1-17.7-4.3-20.4-4.3h-55.6c-2.7,0-16.7,1.1-20.4,4.3c-6.2,5.3-61.3,52.5-68.4,94.4
		c-1.2,6.9,0.8,14,5.5,19.2c6.5,7.4,19.1,15,63.6,15H299.9z M217.4,374.9L217.4,374.9c-12.3-0.1-29.7-1.2-35.9-2.5
		c-0.5-0.1-1-0.4-1.2-0.9c-0.3-0.5-0.3-1.1-0.1-1.6c4.1-10.1,16-23.8,26.5-35.9c3.4-3.9,6.6-7.6,9.4-10.9c0.6-0.8,1.8-0.9,2.6-0.2
		c0.4,0.3,0.7,0.9,0.7,1.4V373c0,0.5-0.2,1-0.5,1.3C218.3,374.7,217.9,374.9,217.4,374.9L217.4,374.9z M184.5,369.2
		c10.3,1.2,20.7,1.9,31.1,2v-41.9c-1.9,2.3-4,4.7-6.2,7.1C199.8,347.4,189,359.8,184.5,369.2L184.5,369.2z M307.3,374.9
		c-1,0-1.8-0.8-1.8-1.8c0,0,0,0,0,0v-48.8c0-0.8,0.5-1.5,1.2-1.7c0.7-0.3,1.6,0,2,0.6c2.7,3.3,6,7,9.4,10.9
		c10.5,12.1,22.4,25.7,26.5,35.9c0.4,0.9-0.1,2-1,2.4c-0.1,0-0.2,0.1-0.3,0.1C337,373.7,319.7,374.7,307.3,374.9L307.3,374.9z
		 M309.2,329.3v41.8c10.4-0.1,20.8-0.8,31.1-2c-4.6-9.4-15.3-21.7-24.9-32.7C313.2,334,311.1,331.6,309.2,329.3z"></path><path class="st1" d="M262.3,306.9c-12.8,0-23.1-10.4-23.1-23.1v-11.2c0-1,0.8-1.8,1.8-1.8c1,0,1.8,0.8,1.8,1.8v11.2
		c0.2,10.8,9.2,19.3,19.9,19c10.4-0.2,18.8-8.6,19-19v-11.2c0-1,0.8-1.8,1.8-1.8c1,0,1.8,0.8,1.8,1.8v11.2
		C285.5,296.6,275.1,306.9,262.3,306.9z"></path><rect class="st3" x="214.1" y="373" width="30.2" height="36"></rect><path class="st1" d="M244.3,410.9h-30.2c-1,0-1.8-0.8-1.8-1.8c0,0,0,0,0,0V373c0-1,0.8-1.8,1.8-1.8h30.2c1,0,1.8,0.8,1.8,1.8v36
		C246.2,410,245.4,410.9,244.3,410.9C244.3,410.9,244.3,410.9,244.3,410.9z M215.9,407.2h26.6v-32.3h-26.6V407.2z"></path><rect class="st3" x="282" y="373" width="30.2" height="36"></rect><path class="st1" d="M312.2,410.9H282c-1,0-1.8-0.8-1.8-1.8V373c0-1,0.8-1.8,1.8-1.8h30.2c1,0,1.8,0.8,1.8,1.8v36
		C314,410,313.2,410.9,312.2,410.9C312.2,410.9,312.2,410.9,312.2,410.9z M283.8,407.2h26.6v-32.3h-26.6V407.2z"></path><path class="st3" d="M251,269.5h23.2l0,0v17.9c0,3-2.4,5.4-5.4,5.4h-12.4c-3,0-5.4-2.4-5.4-5.4L251,269.5L251,269.5z"></path><path class="st1" d="M264.4,294.6h-3.5c-6.5,0-11.7-5.2-11.7-11.7v-13.4c0-1,0.8-1.8,1.8-1.8h23.2c1,0,1.8,0.8,1.8,1.8v13.4
		C276,289.4,270.8,294.6,264.4,294.6z M252.9,271.4v11.6c0,4.4,3.6,8,8,8h3.5c4.4,0,8-3.6,8-8v-11.6H252.9z"></path><ellipse class="st3" cx="196.4" cy="209.1" rx="22.5" ry="19.5"></ellipse><path class="st1" d="M196.4,230.4c-13.4,0-24.4-9.6-24.4-21.3s10.9-21.3,24.4-21.3s24.4,9.6,24.4,21.3S209.8,230.4,196.4,230.4z
		 M196.4,191.4c-11.4,0-20.7,7.9-20.7,17.6s9.3,17.6,20.7,17.6s20.7-7.9,20.7-17.6S207.8,191.5,196.4,191.4L196.4,191.4z"></path><ellipse class="st3" cx="327.7" cy="209.1" rx="22.5" ry="19.5"></ellipse><path class="st1" d="M327.7,230.4c-13.4,0-24.4-9.6-24.4-21.3s10.9-21.3,24.4-21.3s24.4,9.6,24.4,21.3S341.2,230.4,327.7,230.4z
		 M327.7,191.4c-11.4,0-20.7,7.9-20.7,17.6s9.3,17.6,20.7,17.6s20.7-7.9,20.7-17.6S339.1,191.5,327.7,191.4L327.7,191.4z"></path><path class="st3" d="M262.6,272.6L262.6,272.6c-37.6,0-68-30.5-68-68.1c0,0,0,0,0,0v-31.5c0-16.4,24.9-47,41.3-47
		c0,0,2.6,15.5,28.3,29c18,9.5,43.3,10.1,66.3-6v55.4C330.7,241.9,300.3,272.5,262.6,272.6C262.7,272.6,262.7,272.6,262.6,272.6z"></path><path class="st1" d="M262.6,274.4c-38.6-0.1-69.8-31.4-69.8-70v-31.5c0-8.2,5.7-20,14.9-30.8c9.6-11.3,20.1-18,28.2-18
		c0.9,0,1.7,0.6,1.8,1.5c0,0.1,3,14.8,27.4,27.7c15.4,8.1,40.4,10.9,64.4-5.8c0.6-0.4,1.3-0.4,1.9-0.1c0.6,0.3,1,0.9,1,1.6v55.4
		C332.5,243,301.2,274.3,262.6,274.4z M234.6,127.8c-15.5,1.7-38,30.4-38,45.1v31.6c0,36.5,29.6,66.1,66.1,66.1
		c36.5,0,66.1-29.6,66.1-66.1c0,0,0,0,0,0v-52c-24.4,15.5-49.6,12.5-65.3,4.1C241.7,145.1,236,132.3,234.6,127.8z"></path><path class="st1" d="M262.3,217.6c-2,0-4.1-0.2-6.1-0.5c-1-0.1-1.7-1.1-1.6-2.1c0.1-1,1.1-1.7,2.1-1.6c0.1,0,0.1,0,0.2,0
		c0,0,5.6,1,9.5,0.1c0.5-1.7-1.9-8.6-5.3-15.1c-0.4-0.9,0-2,0.9-2.4c0.9-0.4,1.9-0.1,2.4,0.7c1.7,3.3,7.2,14.4,5.3,18.4
		c-0.4,0.9-1.2,1.6-2.2,1.9C265.7,217.4,264,217.6,262.3,217.6z"></path><path class="st1" d="M214,178.9c-2,0-3.7-1.6-3.7-3.7s1.6-3.7,3.7-3.7l0,0l30-0.4c2,0,3.7,1.6,3.7,3.6c0,2-1.6,3.7-3.6,3.7l0,0
		L214,178.9L214,178.9z"></path><path class="st1" d="M314,178.4L314,178.4l-30-0.2c-2-0.1-3.6-1.8-3.5-3.9c0.1-1.9,1.6-3.4,3.5-3.5l0,0l30,0.2c2,0,3.7,1.6,3.7,3.7
		C317.7,176.7,316,178.4,314,178.4z"></path><path class="st1" d="M224.2,199.4c-1,0-1.8-0.9-1.8-1.9c0-0.4,0.2-0.8,0.4-1.1c0.2-0.2,4.6-5.4,10.7-5.6c3.4-0.1,6.4,1.2,9.2,4
		c0.7,0.7,0.7,1.9,0,2.6c-0.7,0.7-1.9,0.7-2.6,0c-1.6-1.9-4-2.9-6.4-2.9c-4.4,0.2-8,4.3-8,4.3C225.3,199.2,224.8,199.4,224.2,199.4z
		"></path><path class="st1" d="M305.7,199.4c-0.5,0-1.1-0.2-1.4-0.6c0-0.1-3.6-4.1-8-4.3c-2.5,0-4.8,1.1-6.4,2.9c-0.7,0.7-1.9,0.7-2.6,0
		c-0.7-0.7-0.7-1.9,0-2.6l0,0c2.3-2.6,5.7-4.1,9.2-4c6,0.2,10.5,5.4,10.7,5.6c0.6,0.8,0.5,1.9-0.3,2.6
		C306.5,199.3,306.1,199.4,305.7,199.4L305.7,199.4z"></path><path class="st1" d="M264.5,240c-20.7,0-32.9-14.9-33.1-15.1c-0.6-0.8-0.4-2,0.4-2.6c0.8-0.6,1.9-0.5,2.5,0.3
		c0.9,1.1,22.7,27.4,58.1,4.5c0.9-0.6,2-0.3,2.5,0.5c0.6,0.9,0.3,2-0.5,2.5C283.1,237.4,273,240,264.5,240z"></path><polyline class="st2" points="217.4,373 235.5,373 235.5,406.7 	"></polyline><path class="st1" d="M235.5,408.5c-1,0-1.8-0.8-1.8-1.8c0,0,0,0,0,0v-31.8h-16.3c-1,0-1.8-0.8-1.8-1.8c0-1,0.8-1.8,1.8-1.8
		c0,0,0,0,0,0h18.1c1,0,1.8,0.8,1.8,1.8v33.7C237.3,407.7,236.5,408.5,235.5,408.5z"></path><polyline class="st2" points="307.3,373 293.3,373 293.3,406.7 	"></polyline><path class="st1" d="M293.3,408.5c-1,0-1.8-0.8-1.8-1.8V373c0-1,0.8-1.8,1.8-1.8h14c1,0,1.8,0.8,1.8,1.8c0,1-0.8,1.8-1.8,1.8
		c0,0,0,0,0,0h-12.2v31.8C295.2,407.7,294.3,408.5,293.3,408.5C293.3,408.5,293.3,408.5,293.3,408.5z"></path><path class="st4" d="M231.8,348.6h61.2l0,0v52.3c0,9.3-7.6,16.9-16.9,16.9l0,0h-25.5c-10.4,0-18.8-8.4-18.8-18.8V348.6L231.8,348.6
		z"></path><path class="st1" d="M275.5,419.7h-26.2c-10.7,0-19.3-8.6-19.3-19.3v-51.7c0-1,0.8-1.8,1.8-1.8h61.2c1,0,1.8,0.8,1.8,1.8v51.7
		C294.8,411,286.1,419.7,275.5,419.7z M233.6,350.5v49.9c0,8.6,7,15.6,15.6,15.6h26.2c8.6,0,15.6-7,15.6-15.6v-49.9H233.6z"></path><path class="st3" d="M222.1,367.1h19.3c1.6,0,2.9,1.3,2.9,2.9v4.9c0,1.6-1.3,2.9-2.9,2.9h-19.3c-1.6,0-2.9-1.3-2.9-2.9V370
		C219.2,368.4,220.5,367.1,222.1,367.1z"></path><path class="st1" d="M239,379.6h-14.4c-4,0-7.2-3.2-7.2-7.2c0-4,3.2-7.2,7.2-7.2H239c4,0,7.2,3.2,7.2,7.2
		C246.2,376.4,243,379.6,239,379.6z M224.6,369c-1.9,0-3.5,1.6-3.5,3.5s1.6,3.5,3.5,3.5H239c1.9,0,3.5-1.6,3.5-3.5s-1.6-3.5-3.5-3.5
		H224.6z"></path><path class="st3" d="M222.1,377.6h19.3c1.6,0,2.9,1.3,2.9,2.9v4.9c0,1.6-1.3,2.9-2.9,2.9h-19.3c-1.6,0-2.9-1.3-2.9-2.9v-4.9
		C219.2,378.9,220.5,377.6,222.1,377.6z"></path><path class="st1" d="M239,390.1h-14.4c-4,0-7.2-3.2-7.2-7.2c0-4,3.2-7.2,7.2-7.2H239c4,0,7.2,3.2,7.2,7.2
		C246.2,386.8,243,390.1,239,390.1C239,390.1,239,390.1,239,390.1z M224.6,379.4c-1.9,0-3.5,1.6-3.5,3.5s1.6,3.5,3.5,3.5H239
		c1.9,0,3.5-1.6,3.5-3.5s-1.6-3.5-3.5-3.5H224.6z"></path><path class="st3" d="M222.1,388h19.3c1.6,0,2.9,1.3,2.9,2.9v4.9c0,1.6-1.3,2.9-2.9,2.9h-19.3c-1.6,0-2.9-1.3-2.9-2.9v-4.9
		C219.2,389.3,220.5,388,222.1,388z"></path><path class="st1" d="M239,400.5h-14.4c-4,0-7.2-3.2-7.2-7.2c0-4,3.2-7.2,7.2-7.2H239c4,0,7.2,3.2,7.2,7.2
		C246.2,397.3,243,400.5,239,400.5z M224.6,389.8c-1.9,0-3.5,1.6-3.5,3.5s1.6,3.5,3.5,3.5H239c1.9,0,3.5-1.6,3.5-3.5
		s-1.6-3.5-3.5-3.5H224.6z"></path><path class="st3" d="M222.1,398.4h19.3c1.6,0,2.9,1.3,2.9,2.9v4.9c0,1.6-1.3,2.9-2.9,2.9h-19.3c-1.6,0-2.9-1.3-2.9-2.9v-4.9
		C219.2,399.7,220.5,398.4,222.1,398.4z"></path><path class="st1" d="M239,410.9h-14.4c-4,0.1-7.3-2.9-7.4-6.9c-0.1-4,2.9-7.3,6.9-7.4c0.2,0,0.4,0,0.5,0H239c4-0.1,7.3,2.9,7.4,6.9
		c0.1,4-2.9,7.3-6.9,7.4C239.4,410.9,239.2,410.9,239,410.9z M224.6,400.2c-1.9,0-3.5,1.6-3.5,3.5s1.6,3.5,3.5,3.5H239
		c1.9,0,3.5-1.6,3.5-3.5s-1.6-3.5-3.5-3.5H224.6z"></path><path class="st3" d="M283.3,367.1h19.3c1.6,0,2.9,1.3,2.9,2.9v4.9c0,1.6-1.3,2.9-2.9,2.9h-19.3c-1.6,0-2.9-1.3-2.9-2.9V370
		C280.4,368.4,281.7,367.1,283.3,367.1z"></path><path class="st1" d="M300.1,379.6h-14.4c-4,0-7.2-3.2-7.2-7.2c0-4,3.2-7.2,7.2-7.2h14.4c4,0,7.2,3.2,7.2,7.2
		C307.3,376.4,304.1,379.6,300.1,379.6z M285.7,369c-1.9,0-3.5,1.6-3.5,3.5s1.6,3.5,3.5,3.5h14.4c1.9,0,3.5-1.6,3.5-3.5
		s-1.6-3.5-3.5-3.5H285.7z"></path><path class="st3" d="M283.3,377.6h19.3c1.6,0,2.9,1.3,2.9,2.9v4.9c0,1.6-1.3,2.9-2.9,2.9h-19.3c-1.6,0-2.9-1.3-2.9-2.9v-4.9
		C280.4,378.9,281.7,377.6,283.3,377.6z"></path><path class="st1" d="M300.1,390.1h-14.4c-4,0-7.2-3.2-7.2-7.2c0-4,3.2-7.2,7.2-7.2c0,0,0,0,0,0h14.4c4,0,7.2,3.2,7.2,7.2
		C307.3,386.8,304.1,390.1,300.1,390.1C300.1,390.1,300.1,390.1,300.1,390.1z M285.7,379.4c-1.9,0-3.5,1.6-3.5,3.5s1.6,3.5,3.5,3.5
		h14.4c1.9,0,3.5-1.6,3.5-3.5s-1.6-3.5-3.5-3.5H285.7z"></path><path class="st3" d="M283.3,388h19.3c1.6,0,2.9,1.3,2.9,2.9v4.9c0,1.6-1.3,2.9-2.9,2.9h-19.3c-1.6,0-2.9-1.3-2.9-2.9v-4.9
		C280.4,389.3,281.7,388,283.3,388z"></path><path class="st1" d="M300.1,400.5h-14.4c-4,0-7.2-3.2-7.2-7.2c0-4,3.2-7.2,7.2-7.2c0,0,0,0,0,0h14.4c4,0,7.2,3.2,7.2,7.2
		C307.3,397.3,304.1,400.5,300.1,400.5C300.1,400.5,300.1,400.5,300.1,400.5z M285.7,389.8c-1.9,0-3.5,1.6-3.5,3.5s1.6,3.5,3.5,3.5
		h14.4c1.9,0,3.5-1.6,3.5-3.5s-1.6-3.5-3.5-3.5H285.7z"></path><path class="st3" d="M283.3,398.4h19.3c1.6,0,2.9,1.3,2.9,2.9v4.9c0,1.6-1.3,2.9-2.9,2.9h-19.3c-1.6,0-2.9-1.3-2.9-2.9v-4.9
		C280.4,399.7,281.7,398.4,283.3,398.4z"></path><path class="st1" d="M300.1,410.9h-14.4c-4,0.1-7.3-2.9-7.4-6.9s2.9-7.3,6.9-7.4c0.2,0,0.4,0,0.5,0h14.4c4-0.1,7.3,2.9,7.4,6.9
		s-2.9,7.3-6.9,7.4C300.5,410.9,300.3,410.9,300.1,410.9z M285.7,400.2c-1.9,0-3.5,1.6-3.5,3.5s1.6,3.5,3.5,3.5h14.4
		c1.9,0,3.5-1.6,3.5-3.5s-1.6-3.5-3.5-3.5H285.7z"></path><path class="st4" d="M292.9,349.1c0,1.5-1.3,2.8-3.7,4c-5.2,2.6-15.3,4.3-26.8,4.3s-21.7-1.8-26.9-4.3c-2.4-1.2-3.7-2.5-3.7-4
		c0-4.6,13.7-8.3,30.6-8.3S292.9,344.5,292.9,349.1z"></path><path class="st1" d="M262.4,359.3c-11.4,0-22.1-1.7-27.7-4.5c-3.1-1.5-4.8-3.5-4.8-5.6c0-7,16.8-10.1,32.4-10.1s32.4,3.2,32.4,10.1
		c0,2.2-1.6,4.1-4.8,5.6C284.4,357.6,273.8,359.3,262.4,359.3z M262.4,342.7c-18.6,0-28.8,4.3-28.8,6.5c0,0.5,0.7,1.4,2.7,2.3
		c5.1,2.6,15.1,4.1,26,4.1s20.9-1.6,26-4.1c2-1,2.7-1.9,2.7-2.4C291.1,346.9,280.9,342.7,262.4,342.7L262.4,342.7z"></path><path class="st0" d="M289.2,353.1c-5.2,2.6-15.3,4.3-26.8,4.3s-21.7-1.8-26.9-4.3c5.2-2.6,15.3-4.4,26.9-4.4S284,350.5,289.2,353.1
		z"></path><path class="st1" d="M262.4,359.3c-11.4,0-22.1-1.7-27.7-4.5c-0.9-0.5-1.3-1.6-0.8-2.5c0.2-0.4,0.5-0.6,0.8-0.8
		c5.6-2.8,16.2-4.5,27.7-4.5s22.1,1.7,27.7,4.5c0.9,0.5,1.3,1.6,0.8,2.5c-0.2,0.4-0.5,0.6-0.8,0.8
		C284.4,357.6,273.8,359.3,262.4,359.3z M240.7,353.1c5.5,1.6,13.3,2.5,21.6,2.5s16.1-0.9,21.6-2.5c-5.5-1.6-13.3-2.5-21.6-2.5
		S246.2,351.5,240.7,353.1z"></path><path class="st5" d="M176.6,129.8l19.6-1.1l11.3,15.9l-7.5,18.2c-2,4.8-8.4,4.7-11.9-0.2l-15.2-21.4
		C169.4,136.3,171.5,130.1,176.6,129.8z"></path><path class="st1" d="M194.8,168.1c-3.3-0.1-6.3-1.8-8.1-4.5l-15.2-21.4c-2.2-2.9-2.7-6.7-1.2-10c1.2-2.5,3.6-4.1,6.3-4.2l19.6-1.1
		c0.6,0,1.2,0.2,1.6,0.8l11.3,15.9c0.4,0.5,0.4,1.2,0.2,1.8l-7.5,18.2c-1,2.5-3.3,4.3-6,4.6C195.5,168.2,195.1,168.2,194.8,168.1z
		 M176.7,131.6c-1.4,0-2.6,0.9-3.2,2.1c-0.8,2.1-0.5,4.5,0.9,6.3l15.2,21.4c1.2,1.9,3.4,3,5.7,2.9c1.4-0.1,2.6-1,3.1-2.4l7.1-17.2
		l-10.2-14.3L176.7,131.6z M176.6,129.8L176.6,129.8z"></path><path class="st5" d="M213.9,103.3l-7.5,18.2l11.3,15.9l19.6-1.1c5.2-0.3,7.2-6.5,3.7-11.3l-15.2-21.4
		C222.4,98.6,215.9,98.5,213.9,103.3z"></path><path class="st1" d="M217.8,139.2c-0.6,0-1.2-0.3-1.5-0.8l-11.3-15.9c-0.4-0.5-0.4-1.2-0.2-1.8l7.5-18.2l0,0c1-2.5,3.3-4.3,6.1-4.6
		c3.6-0.3,7.1,1.4,9.1,4.5l15.2,21.4c2.2,2.9,2.7,6.7,1.2,10c-1.2,2.5-3.6,4.1-6.3,4.2l-19.6,1.1L217.8,139.2z M208.5,121.2
		l10.1,14.3l18.6-1.1c1.4,0,2.6-0.9,3.2-2.1c0.8-2.1,0.5-4.5-0.9-6.3l-15.2-21.4c-1.2-1.9-3.4-3-5.7-2.9c-1.4,0.1-2.6,1-3.1,2.3
		L208.5,121.2z"></path><path class="st5" d="M194.1,126.2l10.7-7.6c1.6-1.1,3.8-0.8,4.9,0.8l10.7,15c1.1,1.6,0.8,3.8-0.8,4.9l-10.7,7.6
		c-1.6,1.1-3.8,0.8-4.9-0.8l-10.7-15C192.1,129.6,192.5,127.4,194.1,126.2z"></path><path class="st1" d="M207.5,148.3c-2.7,0-5.2-1.3-6.8-3.5l-7.2-10.1c-2.7-3.8-1.8-9,2-11.7l5.9-4.2c3.8-2.7,9-1.8,11.7,2l7.2,10.2
		c2.7,3.8,1.8,9-2,11.6l-5.9,4.2C210.9,147.8,209.2,148.3,207.5,148.3z M206.1,120.9c-1,0-1.9,0.3-2.7,0.9l-5.9,4.2
		c-2.1,1.5-2.6,4.4-1.1,6.5c0,0,0,0,0,0l7.2,10.1c1.5,2.1,4.4,2.6,6.5,1.1c0,0,0,0,0,0l5.9-4.2l0,0c2.1-1.5,2.6-4.4,1.1-6.5
		c0,0,0,0,0,0l-7.2-10.2C209.1,121.7,207.7,120.9,206.1,120.9z"></path><path class="st1" d="M217.2,130c-0.7,0-1.3-0.4-1.6-0.9c-0.5-0.9-0.2-2,0.7-2.5l8.6-4.8c0.9-0.5,2-0.2,2.5,0.7
		c0.5,0.9,0.2,2-0.7,2.5l-8.6,4.8C217.9,129.9,217.6,130,217.2,130z"></path><path class="st1" d="M214.1,125.5c-0.3,0-0.5-0.1-0.7-0.2c-0.9-0.4-1.4-1.5-0.9-2.4l5.6-12.7c0.4-0.9,1.5-1.4,2.4-0.9
		c0.9,0.4,1.4,1.5,0.9,2.4l-5.6,12.7C215.5,125.1,214.8,125.5,214.1,125.5z"></path><path class="st1" d="M184.4,140.2c-1,0-1.8-0.8-1.9-1.8c0-0.9,0.6-1.7,1.5-1.8l12.2-2.4c1-0.2,2,0.4,2.2,1.4c0.2,1-0.4,2-1.4,2.2
		c0,0-0.1,0-0.1,0l-12.2,2.4C184.7,140.2,184.6,140.3,184.4,140.2z"></path><path class="st1" d="M192.7,149.8c-1,0-1.8-0.8-1.8-1.8c0-0.5,0.2-1,0.6-1.3l7-6.6c0.7-0.7,1.9-0.7,2.6,0.1s0.7,1.9-0.1,2.6l-7,6.6
		C193.6,149.6,193.1,149.8,192.7,149.8z"></path><path class="st1" d="M307.3,326.1c-1,0-1.8-0.9-1.8-1.9c0-0.3,0.1-0.5,0.2-0.8c0.1-0.1,6-12.4,2.4-19.4c-0.4-0.9,0-2,0.9-2.4
		c0.8-0.4,1.8-0.1,2.3,0.7c4.6,8.7-2,22.2-2.3,22.8C308.7,325.7,308,326.1,307.3,326.1z"></path><path class="st1" d="M217.4,326.1c-0.7,0-1.3-0.4-1.6-1c-0.3-0.6-6.9-14.1-2.3-22.8c0.4-0.9,1.5-1.3,2.4-0.9s1.3,1.5,0.9,2.4
		c0,0.1-0.1,0.1-0.1,0.2c-3.7,7,2.3,19.3,2.4,19.4c0.4,0.9,0.1,2-0.9,2.5C217.9,326.1,217.6,326.1,217.4,326.1L217.4,326.1z"></path><path class="st1" d="M201.4,408.5c-1,0-1.8-0.8-1.8-1.8v-34.2c0-1,0.8-1.8,1.8-1.8c1,0,1.8,0.8,1.8,1.8c0,0,0,0,0,0v34.2
		C203.2,407.7,202.4,408.5,201.4,408.5z"></path><path class="st1" d="M325.1,408.5c-1,0-1.8-0.8-1.8-1.8v-34.2c0-1,0.8-1.8,1.8-1.8c1,0,1.8,0.8,1.8,1.8c0,0,0,0,0,0v34.2
		C326.9,407.7,326.1,408.5,325.1,408.5z"></path></g><g id="lines"><path class="st6" d="M250.9,337.3c-1,0-1.8-0.8-1.8-1.8c0-0.5,0.2-1,0.6-1.3c0.6-0.5,1.2-1.2,1.5-1.9c0.2-0.9-0.6-2-1.2-2.7
		c-0.3-0.3-0.6-0.7-0.9-1c-1-1-1.9-2.1-2.5-3.4c-1.2-2.8-0.6-6,1.7-8.1c0.7-0.7,1.9-0.7,2.6,0s0.7,1.9,0,2.6c0,0-0.1,0.1-0.1,0.1
		c-1.1,1-1.4,2.5-0.9,3.9c0.5,0.9,1.1,1.7,1.9,2.4c0.3,0.4,0.7,0.7,1,1.1c1.8,2.1,2.5,4.2,1.9,6.1c-0.5,1.4-1.4,2.6-2.5,3.5
		C251.9,337.2,251.4,337.3,250.9,337.3z"></path><path class="st6" d="M276,338c-1,0-1.8-0.8-1.8-1.8c0-0.5,0.2-1.1,0.6-1.4c1.1-0.8,1.8-2.1,1.8-3.5c-0.3-1.2-0.9-2.3-1.7-3.2
		c-0.9-1.1-1.6-2.3-2.2-3.6c-0.9-2.6-0.3-5.6,1.6-8.6c0.6-0.8,1.8-1,2.6-0.4c0.7,0.6,1,1.6,0.5,2.4c-0.9,1.4-1.9,3.5-1.2,5.4
		c0.4,1,1,1.8,1.6,2.6c1.2,1.4,2.1,3.1,2.5,4.9c0.3,2.3-0.8,4.8-3.1,6.7C276.9,337.8,276.4,338,276,338z"></path><path class="st6" d="M264.1,336.8c-1,0-1.8-0.8-1.8-1.8c0-0.7,0.4-1.3,0.9-1.6c1.1-0.7,1.7-1.9,1.5-3.2c-0.4-1.6-1-3.2-2-4.5
		c-1.3-1.8-2.1-4-2.5-6.2c-0.2-2.5,0.7-4.7,1.5-6.7c0.3-0.9,0.9-1.7,1.8-2.1c0.9-0.5,2-0.1,2.5,0.8c0.5,0.9,0.1,2-0.8,2.5l0,0
		c0,0,0,0.2,0,0.3c-0.8,1.5-1.2,3.3-1.3,5c0.3,1.6,1,3.2,1.9,4.5c1.2,1.8,2.1,3.8,2.5,6c0.4,2.7-0.9,5.4-3.3,6.8
		C264.7,336.7,264.4,336.8,264.1,336.8z"></path></g><g id="speech-bubble"><path class="st6" d="M195.9,249.4l-10.2,12.8v10c0,9.2-7.4,16.6-16.6,16.6c0,0,0,0,0,0h-33c-9.2,0-16.6-7.4-16.6-16.6v-13.1
		c0-9.2,7.4-16.6,16.6-16.6h33c6.7,0,12.8,4,15.3,10.2L195.9,249.4z"></path><path class="st1" d="M169.1,290.7h-33c-10.2,0-18.4-8.2-18.4-18.4v-13.1c0-10.2,8.3-18.4,18.4-18.4h33c6.9,0,13.1,3.8,16.3,9.9
		l9.9-3c1-0.3,2,0.2,2.3,1.2c0.2,0.6,0.1,1.2-0.3,1.7l-9.8,12.4v9.4C187.6,282.4,179.3,290.7,169.1,290.7
		C169.1,290.7,169.1,290.7,169.1,290.7z M136.1,244.5c-8.1,0-14.7,6.6-14.7,14.7v13.1c0,8.2,6.6,14.8,14.8,14.7h33
		c8.1,0,14.7-6.6,14.7-14.7v-10c0-0.4,0.1-0.8,0.4-1.1l6.6-8.2l-5.8,1.8c-0.9,0.3-1.9-0.2-2.2-1.1c-2.3-5.5-7.7-9.1-13.6-9.1
		L136.1,244.5z"></path><g id="sF2efm"><path class="st4" d="M152.6,278.9c-0.6-0.6-1.3-1.2-1.9-1.8c-1.8-1.6-3.6-3.2-5.4-4.8c-1.2-1-2.4-2.1-3.5-3.3
			c-1-1-1.8-2.2-2.4-3.5c-0.4-0.9-0.6-1.8-0.7-2.8c-0.1-0.9-0.2-1.7-0.1-2.6c0.1-2.9,2-5.5,4.7-6.4c2.7-1,5.8-0.3,7.8,1.9
			c0.5,0.5,1,1.1,1.3,1.7c0,0,0.1,0.1,0.1,0.1l0.1-0.2c0.8-1.3,2-2.4,3.3-3.1c1.2-0.6,2.6-0.9,3.9-0.8c3.3,0.2,6,2.7,6.5,5.9
			c0.1,0.9,0.1,1.7,0.1,2.6c-0.1,0.9-0.2,1.8-0.5,2.7c-0.4,1.4-1.1,2.6-2,3.7c-0.9,1.1-2,2.2-3.1,3.1c-1.6,1.5-3.3,2.9-4.9,4.3
			c-1.1,1-2.2,2-3.3,3L152.6,278.9z"></path><path class="st1" d="M152.6,280.6c-0.4,0-0.9-0.1-1.2-0.4l-0.6-0.6c-0.4-0.4-0.8-0.8-1.3-1.2c-1.5-1.3-2.9-2.6-4.4-3.9l-1-0.9
			c-1.3-1.1-2.5-2.2-3.6-3.4c-1.1-1.2-2.1-2.6-2.7-4.1c-0.4-1-0.7-2.1-0.8-3.2c-0.1-1-0.2-1.9-0.1-2.9c0.1-3.7,2.5-6.9,6-8.1
			c3.4-1.2,7.2-0.3,9.7,2.3l0.1,0.1c0.8-0.8,1.6-1.4,2.6-1.9c3.3-1.7,7.2-1.2,10.1,1.1c1.6,1.4,2.7,3.3,3,5.3c0.1,1,0.2,2,0.1,3
			c-0.1,1.1-0.2,2.1-0.5,3.1c-0.5,1.6-1.3,3.1-2.4,4.3c-1,1.2-2.1,2.3-3.3,3.3l-2.3,2l-2.7,2.4c-0.8,0.7-1.5,1.4-2.3,2.1l-1,0.9
			C153.6,280.5,153.1,280.7,152.6,280.6z M146,255.1c-0.7,0-1.4,0.1-2,0.3c-2,0.7-3.4,2.6-3.5,4.8c0,0.8,0,1.5,0.1,2.3
			c0.1,0.8,0.3,1.6,0.6,2.3c0.5,1.1,1.2,2.1,2,3c1.1,1.1,2.2,2.2,3.3,3.1l1,0.9c1.5,1.3,3,2.6,4.4,3.9l0.7,0.6
			c0.7-0.7,1.5-1.3,2.2-2c0.9-0.8,1.8-1.6,2.7-2.4l2.2-2c1-0.9,2-1.9,2.9-2.9c0.8-0.9,1.3-1.9,1.7-3.1c0.2-0.8,0.3-1.5,0.4-2.3
			c0.1-0.7,0-1.4-0.1-2.2c-0.4-2.4-2.4-4.3-4.9-4.4c-1-0.1-2,0.1-2.9,0.6c-1.1,0.6-2,1.4-2.6,2.5c-0.3,0.6-1,0.9-1.6,0.9l0,0
			c-0.6,0-1.2-0.3-1.6-0.8l-0.1-0.2c-0.3-0.5-0.6-0.9-1-1.3C149,255.8,147.5,255.2,146,255.1z"></path></g></g></svg>